<svg width="574" height="415" viewBox="0 0 574 415" fill="none" xmlns="http://www.w3.org/2000/svg">
<path d="M286.909 414.671C445.365 414.671 573.819 407.172 573.819 397.921C573.819 388.669 445.365 381.17 286.909 381.17C128.454 381.17 0 388.669 0 397.921C0 407.172 128.454 414.671 286.909 414.671Z" fill="#F5F5F5"/>
<path d="M459.032 261.843H122.348C121.244 261.843 120.348 262.738 120.348 263.843V372.185C120.348 373.29 121.244 374.185 122.348 374.185H459.032C460.136 374.185 461.032 373.29 461.032 372.185V263.843C461.032 262.738 460.136 261.843 459.032 261.843Z" fill="#13DA87"/>
<path opacity="0.2" d="M459.032 261.857H122.348C121.244 261.857 120.348 262.753 120.348 263.857V372.185C120.348 373.29 121.244 374.185 122.348 374.185H459.032C460.136 374.185 461.032 373.29 461.032 372.185V263.857C461.032 262.753 460.136 261.857 459.032 261.857Z" fill="white"/>
<path d="M358.349 150.846H214.477C213.373 150.846 212.477 151.742 212.477 152.846V261.189C212.477 262.294 213.373 263.189 214.477 263.189H358.349C359.454 263.189 360.349 262.294 360.349 261.189V152.846C360.349 151.742 359.454 150.846 358.349 150.846Z" fill="#13DA87"/>
<path opacity="0.2" d="M358.349 150.846H214.477C213.373 150.846 212.477 151.742 212.477 152.846V261.189C212.477 262.294 213.373 263.189 214.477 263.189H358.349C359.454 263.189 360.349 262.294 360.349 261.189V152.846C360.349 151.742 359.454 150.846 358.349 150.846Z" fill="white"/>
<path d="M297.665 182.739C298.928 182.737 299.877 183.892 299.63 185.131L292.069 222.959C291.882 223.894 291.061 224.567 290.108 224.567H284.496C283.234 224.567 282.287 223.412 282.535 222.174L288.397 192.926C288.646 191.688 287.699 190.533 286.436 190.533H282.941C281.679 190.533 280.733 189.378 280.98 188.141L281.734 184.37C281.921 183.436 282.74 182.763 283.692 182.762L297.665 182.739Z" fill="#383838"/>
<path d="M377.16 109.916L382.916 116.013L423.713 88.8593L469.778 104.101L509.864 74.4909L512.557 79.3149L523.389 61.0991L502.214 60.8179L504.907 65.6271L469.097 96.8056L422.929 81.9044L377.16 109.916Z" fill="#383838"/>
<path opacity="0.2" d="M401.546 273.414L432.547 272.29C425.237 270.188 417.513 270.307 409.937 269.522C407.745 269.37 405.585 268.922 403.514 268.191C401.561 267.436 399.8 266.237 397.862 265.438C395.322 264.39 392.547 264.043 389.827 264.432C388.951 264.527 388.099 264.778 387.311 265.172C385.827 266.041 384.715 267.426 384.189 269.064C383.703 270.466 383.424 271.932 383.36 273.414C383.36 273.621 383.36 273.843 383.36 274.065C383.4 277.317 384.095 280.528 385.402 283.506C392.594 300.923 450.852 286.051 450.852 286.051C448.81 297.475 451.858 306.087 453.944 317.526L459.405 347.653L453.574 348.29L455.927 356.724H461.062V273.414H401.546Z" fill="black"/>
<path opacity="0.2" d="M461.417 364.005V373.446L461.18 373.164L459.907 366.535C459.9 366.442 459.9 366.348 459.907 366.254C459.905 365.771 460.047 365.299 460.317 364.898C460.586 364.497 460.969 364.185 461.417 364.005Z" fill="black"/>
<path d="M488.659 357.05L497.79 356.058L498.677 334.617L489.532 335.608L488.659 357.05Z" fill="#FF8B7B"/>
<path d="M498.721 352.211L488.363 352.093C488.193 352.076 488.023 352.127 487.89 352.235C487.757 352.343 487.672 352.499 487.653 352.67C487.646 352.694 487.646 352.72 487.653 352.744L487.061 360.882C487.061 361.312 487.227 361.725 487.525 362.034C487.823 362.343 488.23 362.524 488.659 362.54C492.24 362.54 493.749 362.333 498.263 362.066C501.059 361.889 507.704 361.445 511.492 360.734C515.28 360.024 514.451 356.295 512.794 356.295C508.843 356.221 502.791 354.919 500.231 352.847C499.809 352.478 499.28 352.255 498.721 352.211Z" fill="#383838"/>
<path opacity="0.2" d="M489.532 335.623L498.677 334.617L498.248 344.945L489.118 345.626L489.532 335.623Z" fill="black"/>
<path d="M424.527 240.963C424.527 240.963 494.075 237.53 498.677 263.441C500.936 287.795 501.376 312.284 499.994 336.703L487.091 339.189C487.091 339.189 477.029 294.234 478.064 272.142C458.902 270.04 406.725 279.333 398.587 265.054C391.943 253.408 393.186 246.172 393.186 246.172L424.527 240.963Z" fill="#383838"/>
<path d="M482.962 343.362L502.524 342.445L503.871 335.105L482.192 335.845L482.962 343.362Z" fill="#13DA87"/>
<path d="M503.679 353.38C503.823 353.23 503.925 353.044 503.975 352.841C504.024 352.638 504.019 352.426 503.96 352.226C503.936 352.09 503.877 351.963 503.788 351.856C503.7 351.75 503.586 351.668 503.457 351.619C502.332 351.146 499.728 352.907 499.447 353.099C499.42 353.112 499.397 353.131 499.379 353.154C499.362 353.177 499.349 353.204 499.343 353.232C499.337 353.259 499.336 353.288 499.34 353.315C499.345 353.343 499.355 353.369 499.371 353.393C499.386 353.416 499.406 353.436 499.429 353.452C499.452 353.468 499.478 353.478 499.506 353.484C500.304 353.691 501.123 353.81 501.947 353.839C502.561 353.904 503.178 353.74 503.679 353.38ZM503.324 352.004C503.384 352.031 503.435 352.075 503.471 352.13C503.508 352.185 503.529 352.249 503.531 352.315C503.578 352.442 503.589 352.58 503.563 352.713C503.537 352.846 503.474 352.969 503.383 353.069C502.939 353.499 501.74 353.543 500.098 353.188C501.163 352.507 502.702 351.767 503.324 352.004Z" fill="#13DA87"/>
<path d="M499.698 353.439C500.616 352.907 502.007 351.012 501.8 350.006C501.766 349.828 501.673 349.667 501.536 349.549C501.399 349.43 501.226 349.362 501.045 349.355C500.874 349.328 500.699 349.342 500.534 349.396C500.369 349.451 500.22 349.543 500.098 349.666C499.166 350.554 499.328 353.188 499.343 353.306C499.345 353.344 499.357 353.38 499.378 353.411C499.399 353.443 499.428 353.468 499.462 353.484H499.565L499.698 353.439ZM500.912 349.784C501.237 349.784 501.296 349.962 501.326 350.095C501.459 350.746 500.542 352.181 499.728 352.847C499.612 351.818 499.835 350.779 500.364 349.888C500.426 349.826 500.5 349.778 500.582 349.747C500.663 349.717 500.751 349.704 500.838 349.71L500.912 349.784Z" fill="#13DA87"/>
<path opacity="0.3" d="M469.452 255.909C469.452 255.909 483.969 251.751 487.091 260.496C490.213 269.241 486.558 311.888 482.237 321.432C477.916 330.977 469.97 257.418 469.97 257.418L469.452 255.909Z" fill="black"/>
<path d="M469.718 364.005L478.582 363.768L477.901 342.252L469.038 342.474L469.718 364.005Z" fill="#FF8B7B"/>
<path d="M478.73 361.119L468.446 361.77C468.271 361.778 468.105 361.853 467.984 361.98C467.862 362.107 467.795 362.276 467.795 362.451V370.604C467.833 371.026 468.033 371.416 468.353 371.692C468.674 371.968 469.089 372.109 469.511 372.084C473.078 371.744 474.779 371.463 479.307 371.137C483.34 371.045 487.361 370.659 491.338 369.983C495.082 369.125 494.149 365.455 492.492 365.47C488.149 365.21 483.948 363.828 480.299 361.46C479.826 361.18 479.276 361.061 478.73 361.119Z" fill="#383838"/>
<path d="M483.717 361.903C483.852 361.744 483.941 361.551 483.975 361.346C484.009 361.14 483.986 360.928 483.91 360.734C483.875 360.602 483.809 360.479 483.716 360.379C483.623 360.278 483.506 360.202 483.377 360.157C482.223 359.773 479.751 361.741 479.47 361.963C479.434 361.999 479.408 362.045 479.396 362.096C479.392 362.123 479.393 362.151 479.4 362.178C479.407 362.204 479.419 362.229 479.435 362.251C479.452 362.274 479.473 362.292 479.496 362.306C479.52 362.32 479.546 362.329 479.574 362.333C480.383 362.483 481.208 362.538 482.03 362.495C482.649 362.529 483.255 362.316 483.717 361.903ZM483.244 360.572C483.308 360.592 483.367 360.629 483.413 360.678C483.46 360.727 483.493 360.787 483.51 360.853C483.561 360.979 483.578 361.116 483.56 361.251C483.542 361.386 483.489 361.514 483.406 361.622C483.036 362.081 481.793 362.199 480.136 361.992C481.202 361.238 482.681 360.379 483.288 360.572H483.244Z" fill="#13DA87"/>
<path d="M479.825 362.318C480.698 361.711 481.941 359.669 481.66 358.737C481.613 358.56 481.506 358.404 481.358 358.297C481.21 358.189 481.029 358.135 480.846 358.145C480.674 358.125 480.499 358.147 480.337 358.208C480.174 358.27 480.029 358.37 479.914 358.5C479.056 359.447 479.44 362.066 479.44 362.185C479.446 362.221 479.461 362.255 479.485 362.284C479.508 362.313 479.539 362.335 479.574 362.347H479.662C479.69 362.354 479.719 362.355 479.747 362.349C479.775 362.344 479.802 362.334 479.825 362.318ZM480.772 358.53C481.083 358.53 481.187 358.692 481.201 358.811C481.394 359.462 480.565 360.956 479.81 361.681C479.621 360.675 479.772 359.634 480.24 358.722C480.292 358.658 480.357 358.605 480.431 358.566C480.505 358.528 480.586 358.506 480.669 358.5L480.772 358.53Z" fill="#13DA87"/>
<path opacity="0.2" d="M468.239 342.282L478.153 340.61L478.242 354.061L469.541 355.067L468.239 342.282Z" fill="black"/>
<path d="M410.883 243.005C410.883 243.005 479.559 248.125 480.432 268.161C485.493 300.716 481.675 343.629 481.675 343.629L465.22 347.062C465.22 347.062 456.771 306.886 455.557 277.35C438.747 280.177 404.165 285.385 392.313 276.98C381.614 267.318 384.573 247.444 384.573 247.444L410.883 243.005Z" fill="#383838"/>
<path d="M463.666 352.492L483.776 350.791L484.19 342.001L462.157 344.28L463.666 352.492Z" fill="#13DA87"/>
<path d="M415.648 183.342C416.033 184.91 416.388 186.301 416.802 187.692C417.217 189.083 417.646 190.459 418.119 191.895C419.037 194.662 420.087 197.399 421.227 200.181C423.549 205.972 426.651 211.418 430.446 216.37C431.55 217.751 432.768 219.038 434.086 220.217C435.564 221.546 437.236 222.644 439.043 223.472C442.502 225.028 446.309 225.645 450.082 225.263C453.392 224.929 456.625 224.059 459.656 222.688C461.085 222.054 462.474 221.332 463.814 220.528C464.49 220.137 465.142 219.707 465.767 219.24C466.389 218.752 466.981 218.338 467.706 217.761L464.154 211.842L462.394 212.374L460.544 212.877C459.286 213.188 458.058 213.469 456.785 213.677C454.497 214.097 452.164 214.217 449.845 214.032C447.991 213.903 446.197 213.318 444.622 212.33C443.937 211.882 443.306 211.355 442.742 210.761C442.044 209.996 441.396 209.185 440.804 208.335C439.442 206.336 438.249 204.228 437.238 202.031C436.113 199.752 435.122 197.355 434.175 194.884C433.228 192.412 432.369 189.912 431.511 187.396L430.298 183.578C429.913 182.321 429.499 180.974 429.188 179.879L415.648 183.342Z" fill="#FF8B7B"/>
<path d="M414.361 175.647C419.895 168.13 428.744 170.542 434.041 182.069C436.965 188.203 439.332 194.586 441.115 201.143L420.812 208.971C415.056 198.139 408.664 183.371 414.361 175.647Z" fill="#13DA87"/>
<path opacity="0.1" d="M414.361 175.647C419.895 168.13 428.744 170.542 434.041 182.069C436.965 188.203 439.332 194.586 441.115 201.143L420.812 208.971C415.056 198.139 408.664 183.371 414.361 175.647Z" fill="black"/>
<path opacity="0.3" d="M423.328 187.648C421.597 186.553 418.341 193.33 416.995 201.261C418.208 203.969 419.51 206.559 420.798 208.971L433.006 204.236C430.742 196.926 427.205 190.119 423.328 187.648Z" fill="black"/>
<path d="M465.072 208.793L469.511 206.204L471.405 216.192C471.405 216.192 464.006 220.942 461.772 217.272L461.92 214.683C462.003 213.535 462.327 212.418 462.87 211.403C463.413 210.389 464.163 209.499 465.072 208.793Z" fill="#FF8B7B"/>
<path d="M475.105 205.538L479.293 213.469L471.331 216.192L469.452 206.204L475.105 205.538Z" fill="#FF8B7B"/>
<path d="M414.065 169.092L403.5 167.952L390.492 169.506C388.505 169.741 386.651 170.623 385.215 172.016C383.779 173.409 382.841 175.236 382.546 177.215C381.371 186.808 380.793 196.465 380.815 206.13C380.696 217.021 382.413 233.061 384.633 247.563L428.211 240.874C427.427 202.697 429.928 190.77 429.972 180.634C429.978 178.65 429.337 176.718 428.146 175.132C426.955 173.546 425.279 172.391 423.373 171.844L414.065 169.092Z" fill="#13DA87"/>
<path d="M414.065 169.092L403.5 167.952L390.492 169.506C388.505 169.741 386.651 170.623 385.215 172.016C383.779 173.409 382.841 175.236 382.546 177.215C381.371 186.808 380.793 196.465 380.815 206.13C380.696 217.021 382.413 233.061 384.633 247.563L428.211 240.874C427.427 202.697 429.928 190.77 429.972 180.634C429.978 178.65 429.337 176.718 428.146 175.132C426.955 173.546 425.279 172.391 423.373 171.844L414.065 169.092Z" fill="#13DA87"/>
<path opacity="0.3" d="M386.645 173.457C395.331 171.651 395.524 191.48 392.017 206.1C390.996 210.332 385.964 208.734 384.263 207.698C378.654 204.31 376.006 180.145 386.645 173.457Z" fill="black"/>
<path d="M386.527 202.845C387.133 211.412 384.559 215.985 389.205 218.693C393.852 221.401 421.153 229.51 421.76 228.37C420.517 230.472 419.303 232.277 418.06 234.393C410.247 233.476 402.429 232.647 394.606 231.907C388.894 231.36 379.675 230.191 375.103 226.728C370.96 223.591 371.226 209.252 371.581 198.923C375.162 196.689 386.527 202.845 386.527 202.845Z" fill="#FF8B7B"/>
<path d="M383.094 170.083C391.972 167.123 395.598 174.241 393.26 186.656C392.107 193.354 390.344 199.932 387.992 206.307L369.051 200.98C370.752 188.817 374.052 173.072 383.094 170.083Z" fill="#13DA87"/>
<path d="M396.145 169.609C395.965 171.511 396.491 173.413 397.625 174.951C398.783 176.455 400.119 177.811 401.605 178.991C403.44 180.56 405.601 182.232 407.983 181.832C410.366 181.433 411.401 180.352 412.2 177.674C414.183 180.634 414.331 182.113 416.403 182.291C417.077 182.234 417.73 182.031 418.318 181.697C418.906 181.362 419.414 180.903 419.806 180.352C421.301 179.045 422.216 177.199 422.352 175.218C422.721 171.356 419.481 167.819 415.811 166.65C412.076 165.524 408.212 164.883 404.313 164.741C400.954 164.46 396.707 165.659 396.145 169.609Z" fill="#383838"/>
<path d="M404.743 150.846L409.656 156.188L416.359 163.439C415.78 164.251 415.358 165.164 415.116 166.132C414.703 167.153 414.675 168.289 415.037 169.328C415.399 170.368 416.127 171.241 417.084 171.785C418.09 172.214 418.741 177.349 412.245 177.023C410.395 177.049 408.558 176.695 406.85 175.982C405.142 175.27 403.599 174.214 402.316 172.88C401.073 171.311 400.733 170.468 401.902 168.692C405.29 163.661 405.29 156.514 404.743 150.846Z" fill="#FF8B7B"/>
<path opacity="0.2" d="M414.745 161.619L410.499 156.351C410.499 156.514 410.41 156.691 410.351 156.869C410.183 157.639 410.074 158.42 410.025 159.207C409.862 161.885 412.481 165.229 414.967 166.606L415.145 166.058C415.4 165.157 415.778 164.295 416.27 163.498C416.297 163.448 416.338 163.407 416.388 163.38L414.745 161.619Z" fill="black"/>
<path d="M420.649 149.233C424.571 141.583 423.742 137.247 427.515 133.178C429.543 132.275 433.094 136.019 430.726 142.382C428.359 148.745 420.649 149.233 420.649 149.233Z" fill="#383838"/>
<path d="M404.861 140.739C404.402 149.618 403.751 154.782 407.717 159.68C413.636 167.079 425.03 164.12 428.093 155.448C430.845 147.709 431.052 134.495 422.795 130.204C421.355 129.464 419.783 129.016 418.169 128.885C416.555 128.754 414.931 128.943 413.39 129.441C411.849 129.938 410.422 130.735 409.189 131.785C407.957 132.835 406.943 134.118 406.207 135.56C405.379 137.165 404.919 138.934 404.861 140.739Z" fill="#FF8B7B"/>
<path d="M403.81 148.627L411.046 151.482L409.226 143.714L413.162 141.465L417.971 134.273C417.971 134.273 407.613 131.225 404.461 130.81C403.366 130.662 399.563 133.622 399.001 134.865C398.266 136.611 398.033 138.529 398.329 140.4C398.624 142.272 399.436 144.024 400.673 145.46C401.612 146.616 402.663 147.677 403.81 148.627Z" fill="#383838"/>
<path d="M407.435 121.754C409.714 120.644 412.481 122.035 414.908 122.775C417.29 123.623 419.721 124.325 422.189 124.876C424.34 125.392 426.604 125.114 428.566 124.092C429.52 123.549 430.242 122.677 430.599 121.639C430.956 120.601 430.922 119.469 430.505 118.454C431.835 119.21 432.962 120.278 433.786 121.566C434.611 122.855 435.109 124.326 435.237 125.85C435.366 127.375 435.12 128.908 434.522 130.316C433.925 131.724 432.993 132.966 431.807 133.933C429.533 135.63 426.757 136.52 423.92 136.463C421.109 136.389 418.314 136.002 415.589 135.309C411.934 134.524 406.71 134.406 403.307 132.734C399.903 131.062 400.481 125.113 407.435 121.754Z" fill="#383838"/>
<path d="M400.51 147.117C400.754 149.091 401.712 150.907 403.203 152.222C405.157 153.88 407.406 151.926 407.643 149.411C407.791 147.162 406.562 143.921 404.254 143.225C401.946 142.53 400.214 144.661 400.51 147.117Z" fill="#FF8B7B"/>
<path d="M418.297 145.623C418.193 146.362 418.475 147.028 418.963 147.102C419.451 147.176 419.851 146.673 420.014 145.948C420.109 145.665 420.096 145.356 419.975 145.082C419.855 144.808 419.636 144.589 419.362 144.468C418.874 144.38 418.415 144.898 418.297 145.623Z" fill="#383838"/>
<path d="M426.525 147.162C426.406 147.901 426.702 148.641 427.176 148.641C427.649 148.641 428.123 148.212 428.241 147.502C428.36 146.792 428.049 146.096 427.575 146.022C427.102 145.948 426.628 146.436 426.525 147.162Z" fill="#383838"/>
<path d="M423.802 147.221C424.118 149.291 424.705 151.311 425.548 153.229C425.058 153.42 424.532 153.5 424.008 153.464C423.484 153.429 422.974 153.277 422.514 153.021L423.802 147.221Z" fill="#FF5652"/>
<path d="M421.212 157.179C420.361 157.05 419.546 156.748 418.816 156.292C418.086 155.837 417.456 155.238 416.965 154.531C416.937 154.481 416.929 154.423 416.943 154.368C416.957 154.313 416.991 154.265 417.039 154.235C417.08 154.198 417.132 154.178 417.187 154.178C417.242 154.178 417.294 154.198 417.335 154.235C417.88 154.993 418.591 155.615 419.415 156.054C420.239 156.493 421.152 156.736 422.085 156.765C422.141 156.765 422.196 156.786 422.237 156.825C422.278 156.863 422.303 156.916 422.307 156.972C422.309 157.001 422.305 157.031 422.296 157.058C422.287 157.086 422.272 157.112 422.253 157.134C422.233 157.156 422.21 157.174 422.184 157.187C422.157 157.2 422.129 157.207 422.1 157.209C421.804 157.216 421.507 157.206 421.212 157.179Z" fill="#383838"/>
<path d="M417.128 142.752C417.063 142.721 417.004 142.681 416.95 142.634C416.869 142.551 416.823 142.439 416.823 142.323C416.823 142.207 416.869 142.095 416.95 142.012C417.445 141.541 418.048 141.199 418.707 141.019C419.365 140.838 420.058 140.823 420.724 140.976C420.833 141.004 420.928 141.074 420.986 141.171C421.044 141.268 421.061 141.384 421.035 141.494C421.019 141.55 420.993 141.603 420.957 141.649C420.921 141.694 420.876 141.732 420.824 141.76C420.773 141.787 420.717 141.804 420.659 141.81C420.601 141.815 420.542 141.808 420.487 141.79C419.962 141.683 419.419 141.704 418.904 141.851C418.389 141.998 417.917 142.266 417.527 142.634C417.477 142.687 417.414 142.726 417.344 142.747C417.273 142.767 417.199 142.769 417.128 142.752Z" fill="#383838"/>
<path d="M427.294 142.382C427.279 142.314 427.279 142.243 427.294 142.175C427.322 142.061 427.394 141.964 427.493 141.903C427.593 141.842 427.713 141.822 427.827 141.849C428.488 141.995 429.104 142.3 429.619 142.739C430.135 143.177 430.536 143.736 430.786 144.365C430.803 144.468 430.782 144.574 430.728 144.664C430.674 144.753 430.589 144.821 430.49 144.855C430.391 144.888 430.283 144.886 430.186 144.848C430.088 144.81 430.007 144.738 429.958 144.646C429.749 144.151 429.423 143.715 429.008 143.374C428.593 143.034 428.101 142.8 427.575 142.693C427.506 142.668 427.445 142.627 427.396 142.573C427.346 142.518 427.312 142.453 427.294 142.382Z" fill="#383838"/>
<path d="M451.014 257.329L510.426 249.561C510.573 249.542 510.715 249.495 510.843 249.422C510.972 249.349 511.085 249.251 511.176 249.134C511.266 249.017 511.333 248.884 511.372 248.741C511.411 248.599 511.422 248.45 511.403 248.303C511.362 248.008 511.208 247.741 510.973 247.558C510.738 247.376 510.441 247.292 510.145 247.326L450.718 255.095C450.423 255.139 450.157 255.297 449.978 255.535C449.798 255.773 449.718 256.072 449.756 256.367C449.775 256.514 449.822 256.655 449.895 256.783C449.968 256.911 450.067 257.023 450.184 257.112C450.301 257.202 450.434 257.267 450.577 257.304C450.72 257.342 450.868 257.35 451.014 257.329Z" fill="#13DA87"/>
<path opacity="0.5" d="M451.014 257.329L510.426 249.561C510.573 249.542 510.715 249.495 510.843 249.422C510.972 249.349 511.085 249.251 511.176 249.134C511.266 249.017 511.333 248.884 511.372 248.741C511.411 248.599 511.422 248.45 511.403 248.303C511.362 248.008 511.208 247.741 510.973 247.558C510.738 247.376 510.441 247.292 510.145 247.326L450.718 255.095C450.423 255.139 450.157 255.297 449.978 255.535C449.798 255.773 449.718 256.072 449.756 256.367C449.775 256.514 449.822 256.655 449.895 256.783C449.968 256.911 450.067 257.023 450.184 257.112C450.301 257.202 450.434 257.267 450.577 257.304C450.72 257.342 450.868 257.35 451.014 257.329Z" fill="black"/>
<path d="M421.73 256.989L450.556 257.344C450.704 257.348 450.851 257.322 450.989 257.268C451.127 257.214 451.253 257.133 451.359 257.03C451.466 256.926 451.55 256.803 451.608 256.666C451.665 256.529 451.695 256.383 451.695 256.234C451.697 256.087 451.67 255.94 451.615 255.803C451.56 255.666 451.479 255.54 451.376 255.435C451.273 255.329 451.15 255.244 451.014 255.186C450.879 255.128 450.733 255.097 450.585 255.095L421.759 254.74C421.462 254.74 421.177 254.856 420.964 255.063C420.751 255.27 420.628 255.552 420.62 255.849C420.616 255.998 420.642 256.145 420.696 256.283C420.75 256.421 420.831 256.547 420.934 256.653C421.038 256.76 421.162 256.844 421.298 256.902C421.435 256.959 421.582 256.989 421.73 256.989Z" fill="#13DA87"/>
<path opacity="0.5" d="M421.73 256.989L450.556 257.344C450.704 257.348 450.851 257.322 450.989 257.268C451.127 257.214 451.253 257.133 451.359 257.03C451.466 256.926 451.55 256.803 451.608 256.666C451.665 256.529 451.695 256.383 451.695 256.234C451.697 256.087 451.67 255.94 451.615 255.803C451.56 255.666 451.479 255.54 451.376 255.435C451.273 255.329 451.15 255.244 451.014 255.186C450.879 255.128 450.733 255.097 450.585 255.095L421.759 254.74C421.462 254.74 421.177 254.856 420.964 255.063C420.751 255.27 420.628 255.552 420.62 255.849C420.616 255.998 420.642 256.145 420.696 256.283C420.75 256.421 420.831 256.547 420.934 256.653C421.038 256.76 421.162 256.844 421.298 256.902C421.435 256.959 421.582 256.989 421.73 256.989Z" fill="white"/>
<path d="M452.361 256.027L420.621 255.776C420.621 255.776 419.555 255.154 421.686 254.74C423.817 254.325 451.37 250.685 451.37 250.685L452.361 256.027Z" fill="#13DA87"/>
<path d="M452.361 256.027L421.375 255.687C421.375 255.687 420.31 255.05 422.44 254.651C424.571 254.251 451.37 250.685 451.37 250.685L452.361 256.027Z" fill="#13DA87"/>
<path opacity="0.2" d="M452.361 256.027L421.375 255.687C421.375 255.687 420.31 255.05 422.44 254.651C424.571 254.251 451.37 250.685 451.37 250.685L452.361 256.027Z" fill="white"/>
<path d="M452.346 254.843L507.748 247.592C508.711 247.445 509.587 246.953 510.214 246.207C510.84 245.46 511.173 244.512 511.151 243.538L509.938 215.156C509.924 214.699 509.813 214.249 509.614 213.837C509.414 213.425 509.13 213.059 508.779 212.765C508.428 212.47 508.02 212.253 507.579 212.127C507.139 212.001 506.677 211.969 506.224 212.034L450.822 219.329C449.856 219.477 448.978 219.971 448.351 220.721C447.724 221.47 447.393 222.422 447.418 223.399L448.632 251.765C448.65 252.22 448.763 252.666 448.965 253.074C449.166 253.482 449.452 253.843 449.802 254.133C450.153 254.423 450.56 254.637 450.998 254.759C451.437 254.881 451.896 254.91 452.346 254.843Z" fill="#13DA87"/>
<path opacity="0.4" d="M452.346 254.843L507.748 247.592C508.711 247.445 509.587 246.953 510.214 246.207C510.84 245.46 511.173 244.512 511.151 243.538L509.938 215.156C509.924 214.699 509.813 214.249 509.614 213.837C509.414 213.425 509.13 213.059 508.779 212.765C508.428 212.47 508.02 212.253 507.579 212.127C507.139 212.001 506.677 211.969 506.224 212.034L450.822 219.329C449.856 219.477 448.978 219.971 448.351 220.721C447.724 221.47 447.393 222.422 447.418 223.399L448.632 251.765C448.65 252.22 448.763 252.666 448.965 253.074C449.166 253.482 449.452 253.843 449.802 254.133C450.153 254.423 450.56 254.637 450.998 254.759C451.437 254.881 451.896 254.91 452.346 254.843Z" fill="black"/>
<path d="M453.959 254.547L509.361 247.311C510.325 247.161 511.202 246.665 511.828 245.917C512.454 245.168 512.787 244.218 512.764 243.242L511.551 214.89C511.539 214.431 511.43 213.98 511.231 213.566C511.032 213.152 510.748 212.785 510.397 212.489C510.047 212.192 509.637 211.974 509.196 211.847C508.754 211.72 508.291 211.688 507.837 211.753L452.435 219.004C451.47 219.148 450.592 219.64 449.965 220.386C449.338 221.133 449.006 222.083 449.031 223.058L450.245 251.44C450.259 251.897 450.369 252.346 450.569 252.758C450.769 253.169 451.054 253.534 451.404 253.827C451.755 254.121 452.164 254.337 452.605 254.461C453.045 254.585 453.506 254.614 453.959 254.547Z" fill="#13DA87"/>
<path opacity="0.2" d="M453.959 254.547L509.361 247.311C510.325 247.161 511.202 246.665 511.828 245.917C512.454 245.168 512.787 244.218 512.764 243.242L511.551 214.89C511.539 214.431 511.43 213.98 511.231 213.566C511.032 213.152 510.748 212.785 510.397 212.489C510.047 212.192 509.637 211.974 509.196 211.847C508.754 211.72 508.291 211.688 507.837 211.753L452.435 219.004C451.47 219.148 450.592 219.64 449.965 220.386C449.338 221.133 449.006 222.083 449.031 223.058L450.245 251.44C450.259 251.897 450.369 252.346 450.569 252.758C450.769 253.169 451.054 253.534 451.404 253.827C451.755 254.121 452.164 254.337 452.605 254.461C453.045 254.585 453.506 254.614 453.959 254.547Z" fill="white"/>
<path d="M430.534 189.083C424.482 187.81 418.149 193.655 416.388 202.105C414.627 210.554 418.104 218.456 424.157 219.714C430.209 220.972 436.557 215.141 438.318 206.677C440.079 198.213 436.601 190.341 430.534 189.083ZM425.311 218.279C421.449 217.479 419.599 210.687 421.168 203.111C422.736 195.535 427.087 190.045 431.023 190.844C434.959 191.643 436.749 198.45 435.181 206.026C433.612 213.603 429.188 219.078 425.311 218.279Z" fill="#383838"/>
<path opacity="0.5" d="M435.166 206.011C433.597 213.588 429.247 219.078 425.325 218.264C421.404 217.45 419.599 210.673 421.167 203.096C422.736 195.52 427.086 190.03 431.023 190.829C434.959 191.628 436.749 198.45 435.166 206.011Z" fill="white"/>
<path d="M422.144 219.004L415.648 239.483C415.648 239.483 415.989 242.014 418.963 240.756C421.937 239.498 424.112 219.714 424.112 219.714L422.144 219.004Z" fill="#383838"/>
<path d="M415.648 224.597L420.221 223.117V234.467C420.221 234.467 410.291 237.145 409.522 232.558L410.721 230.043C411.697 227.838 413.162 225.248 415.648 224.597Z" fill="#FF8B7B"/>
<path d="M427.235 226.032L426.08 232.44L420.176 234.452L420.235 223.103L427.235 226.032Z" fill="#FF8B7B"/>
<path d="M473.006 167.272L472.96 167.287L472.9 167.272L472.96 167.257L473.006 167.272Z" fill="#F0F0F0"/>
<path d="M132.246 38.1333C132.704 38.0445 133.208 38.5328 133.356 39.2283C133.504 39.9238 133.267 40.6044 132.793 40.708C132.32 40.8116 131.831 40.3085 131.683 39.5982C131.535 38.8879 131.772 38.2221 132.246 38.1333Z" fill="#383838"/>
<path d="M133.696 47.5001C134.305 47.5248 134.912 47.4157 135.475 47.1805C136.037 46.9453 136.541 46.5897 136.951 46.1388C135.152 44.5899 133.578 42.7968 132.275 40.8116L133.696 47.5001Z" fill="#B74D3C"/>
<path d="M128.576 36.1356C128.916 35.7211 129.35 35.3935 129.841 35.18C130.333 34.9664 130.868 34.8729 131.403 34.9074H131.551C131.665 34.9074 131.774 34.8622 131.854 34.7817C131.935 34.7013 131.98 34.5921 131.98 34.4783C131.98 34.3645 131.935 34.2553 131.854 34.1748C131.774 34.0944 131.665 34.0491 131.551 34.0491C130.879 33.9891 130.202 34.0923 129.579 34.35C128.955 34.6076 128.403 35.012 127.97 35.5289C127.906 35.6089 127.869 35.7076 127.866 35.8101C127.87 35.9242 127.916 36.0329 127.995 36.115C128.074 36.1971 128.181 36.2467 128.295 36.254C128.399 36.2428 128.496 36.2016 128.576 36.1356Z" fill="#383838"/>
<path d="M123.856 79.3148C111.662 79.448 109.798 72.8187 109.798 72.8187C113.423 69.2673 113.601 62.7564 112.831 56.9557C113.802 58.3356 115.034 59.5119 116.457 60.4183C117.741 61.2932 119.196 61.8876 120.726 62.163C122.256 62.4383 123.826 62.3884 125.335 62.0165C125.383 62.0313 125.435 62.0313 125.483 62.0165C125.476 62.1347 125.476 62.2533 125.483 62.3716C124.758 67.018 125.409 71.99 130.278 73.455C130.263 73.4106 137.292 79.1668 123.856 79.3148Z" fill="#B25B52"/>
<path d="M125.868 60.2556C125.735 60.8179 125.616 61.3802 125.527 61.9721C125.479 61.9869 125.428 61.9869 125.379 61.9721C123.87 62.3441 122.3 62.394 120.77 62.1186C119.24 61.8433 117.786 61.2488 116.501 60.374C115.078 59.4676 113.846 58.2912 112.875 56.9114C112.683 55.4316 112.417 53.9518 112.15 52.6793L125.468 59.9448L125.868 60.2556Z" fill="#B25B52"/>
<path d="M106.084 73.9285C106.084 73.9285 108.008 68.0095 110.923 66.1006C113.838 64.1917 126.593 66.1746 128.591 66.9589C130.589 67.7432 132.616 72.3452 132.616 72.3452L106.084 73.9285Z" fill="#13DA87"/>
<path d="M99.3803 92.751C101.102 93.0056 102.856 92.5909 104.282 91.5921C105.708 90.5932 106.696 89.0862 107.045 87.3808C107.394 85.6753 107.076 83.9012 106.157 82.4229C105.237 80.9447 103.787 79.8748 102.103 79.4332C96.6279 78.2494 90.9901 76.8584 85.5002 75.4527C80.0103 74.0469 78.1014 73.9729 72.9371 72.1676C71.6201 71.7385 70.3475 71.2354 69.0897 70.6878L68.3942 70.4215C68.2808 70.3902 68.1715 70.3455 68.0687 70.2883C67.7326 70.1025 67.4155 69.8844 67.1216 69.6372C65.3903 68.0539 53.8039 52.9752 51.599 47.8552L51.525 47.6925C51.2067 46.9339 50.6233 46.317 49.8836 45.9569C49.1439 45.5968 48.2984 45.5181 47.505 45.7355C46.7115 45.9529 46.0242 46.4515 45.5714 47.1383C45.1185 47.8251 44.9309 48.6533 45.0437 49.4682C45.7392 55.6832 57.1333 76.666 59.4565 79.3444C60.2022 80.147 61.0195 80.88 61.8981 81.5344C62.7592 82.1755 63.6811 82.7306 64.6505 83.1918C66.1302 83.8872 75.9854 86.8467 81.8452 88.5485C87.705 90.2502 93.4021 91.6412 99.4395 92.7806L99.3803 92.751Z" fill="#B25B52"/>
<path d="M50.7262 46.0352V47.219C50.7689 47.7853 50.6354 48.351 50.344 48.8384C50.0526 49.3259 49.6175 49.7113 49.0984 49.9417C47.0131 50.7667 44.7532 51.0517 42.5283 50.7704L44.3484 40.5601L49.3648 43.8155C49.7522 44.0502 50.0779 44.3741 50.3147 44.7602C50.5515 45.1463 50.6926 45.5835 50.7262 46.0352Z" fill="#B25B52"/>
<path d="M44.3927 40.5304L42.5726 50.7407L35.7805 46.7306L35.6326 37.5117L44.3927 40.5304Z" fill="#B25B52"/>
<path d="M101.497 72.0345C98.8776 72.4192 88.5193 74.6388 79.9219 72.212L79.3596 89.7767C79.3596 89.7767 94.2903 97.1755 101.053 91.8336C107.815 86.4916 112.062 76.8585 101.497 72.0345Z" fill="#383838"/>
<path d="M82.2596 94.3787L75.512 91.3452L77.4504 70.3475L83.7394 71.4869L82.2596 94.3787Z" fill="#13DA87"/>
<path d="M136.596 71.3537C134.628 71.0281 132.409 70.7322 130.159 70.5398C123.359 70.229 116.546 70.3031 109.754 70.7618L105.314 71.1909C98.2115 71.7088 91.0643 77.8794 92.4849 84.8639C100.372 123.337 98.1227 144.764 97.3977 151.024L145.386 150.506C150.358 110.996 148.982 91.0788 147.043 81.4012C146.533 78.8614 145.259 76.5382 143.392 74.7425C141.525 72.9468 139.154 71.7644 136.596 71.3537Z" fill="#383838"/>
<path opacity="0.2" d="M146.925 136.611L145.445 150.55C148.509 125.809 149.13 108.762 148.686 97.0867L130.456 84.9083C138.639 110.73 141.317 118.883 146.925 136.611Z" fill="black"/>
<path d="M134.599 50.2968C134.568 52.383 134.009 54.4273 132.974 56.2387C131.939 58.0502 130.461 59.5696 128.68 60.6551H128.576C127.665 61.2367 126.665 61.6664 125.617 61.9277C125.568 61.9425 125.517 61.9425 125.469 61.9277C123.959 62.2996 122.389 62.3496 120.859 62.0742C119.329 61.7989 117.875 61.2044 116.59 60.3296C115.167 59.4232 113.935 58.2468 112.965 56.867C110.568 53.5967 109.576 49.2166 107.86 43.0608C107.341 41.2526 107.239 39.35 107.564 37.497C108.14 34.3207 109.954 31.5031 112.606 29.6635C115.259 27.8239 118.533 27.1127 121.71 27.6862C130.84 29.4175 134.791 42.0694 134.599 50.2968Z" fill="#B25B52"/>
<path opacity="0.2" d="M128.576 60.6995C127.665 61.2811 126.666 61.7109 125.617 61.9721C125.617 61.9721 125.957 56.5414 125.957 56.5414C125.957 56.5414 127.896 60.7143 128.576 60.6995Z" fill="black"/>
<path d="M129.271 45.606C129.1 47.5084 128.526 49.3525 127.587 51.016C126.648 52.6794 125.366 54.1241 123.826 55.254C123.438 55.5502 122.996 55.7665 122.524 55.8903C121.044 56.2455 119.564 54.9137 118.81 53.4783C117.994 51.577 117.59 49.5244 117.626 47.4557C117.448 42.5873 118.055 37.2602 121.473 33.7976C122.229 32.9227 123.285 32.363 124.433 32.229C128.783 32.0663 129.582 42.8241 129.271 45.606Z" fill="#383838"/>
<path d="M110.153 23.7648C109.224 23.4566 108.223 23.44 107.285 23.7173C106.346 23.9947 105.515 24.5527 104.902 25.3163C104.29 26.08 103.926 27.0127 103.86 27.9892C103.793 28.9657 104.027 29.9392 104.53 30.7789C100.668 31.9775 97.0278 34.8778 96.2583 38.8435C95.4888 42.8093 98.7739 47.4409 102.799 46.9822C102.192 47.467 101.774 48.1478 101.614 48.9076C101.455 49.6674 101.565 50.459 101.925 51.1466C102.286 51.8343 102.874 52.3751 103.59 52.6763C104.305 52.9775 105.103 53.0204 105.847 52.7976C108.984 58.0064 118.751 59.1458 123.471 55.2984C124.581 54.3957 123.782 53.4487 124.018 52.0429C124.16 51.3369 124.067 50.604 123.755 49.9553C123.442 49.3065 122.927 48.7771 122.287 48.4471L123.308 44.9105L120.349 41.5959C123.042 39.5094 125.868 37.2602 127.037 34.0639C128.206 30.8677 126.86 26.5024 123.545 25.7181C124.075 25.5865 124.569 25.3378 124.99 24.9902C125.412 24.6427 125.75 24.2051 125.98 23.7097C126.21 23.2143 126.326 22.6736 126.319 22.1275C126.313 21.5813 126.184 21.0436 125.942 20.5538C125.637 20.1075 125.238 19.733 124.774 19.4561C124.309 19.1793 123.79 19.0067 123.253 18.9504C122.715 18.8941 122.171 18.9554 121.66 19.1301C121.148 19.3047 120.681 19.5886 120.289 19.9619C119.357 18.6745 118.603 17.2687 117.019 16.8396C110.819 15.1231 109.117 21.782 110.153 23.7648Z" fill="#383838"/>
<path d="M127.096 39.1543C129.671 39.909 131.003 43.6823 131.107 46.0943C131.24 48.7431 129.464 50.4152 127.156 48.6395C125.409 47.2757 124.166 45.3708 123.619 43.2236C122.938 40.6341 124.492 38.4144 127.096 39.1543Z" fill="#B25B52"/>
<path d="M122.539 378.64C122.492 378.634 122.448 378.614 122.413 378.582C122.379 378.55 122.355 378.508 122.346 378.462C122.339 378.417 122.344 378.37 122.363 378.328C122.381 378.286 122.411 378.25 122.45 378.225C122.627 378.151 125.912 376.183 127.511 376.583C127.663 376.612 127.808 376.674 127.936 376.763C128.063 376.852 128.17 376.967 128.25 377.101C128.354 377.242 128.41 377.413 128.41 377.589C128.41 377.764 128.354 377.935 128.25 378.077C127.866 378.64 126.771 378.832 125.469 378.861C124.487 378.875 123.507 378.8 122.539 378.64ZM126.978 376.953C125.661 377.137 124.394 377.58 123.249 378.255C125.039 378.462 127.451 378.403 127.881 377.781C127.969 377.692 128.028 377.559 127.881 377.278C127.831 377.196 127.764 377.126 127.685 377.073C127.606 377.019 127.516 376.983 127.422 376.967C127.28 376.945 127.135 376.945 126.993 376.967L126.978 376.953Z" fill="#13DA87"/>
<path d="M122.45 378.595C122.415 378.572 122.387 378.541 122.366 378.505C122.345 378.469 122.334 378.429 122.331 378.388C122.374 377.035 122.863 375.734 123.722 374.688C123.896 374.538 124.098 374.425 124.317 374.356C124.536 374.288 124.767 374.265 124.995 374.289C125.616 374.289 125.838 374.644 125.853 374.896C126.06 376.005 123.841 378.077 122.686 378.61H122.657C122.623 378.621 122.587 378.626 122.552 378.623C122.516 378.621 122.481 378.611 122.45 378.595ZM124.847 374.718C124.552 374.73 124.273 374.851 124.063 375.058C123.371 375.9 122.952 376.932 122.864 378.018C124.033 377.278 125.528 375.636 125.409 374.984C125.409 374.984 125.409 374.733 124.95 374.733H124.832L124.847 374.718Z" fill="#13DA87"/>
<path d="M112.491 356.636L121.976 356.458L121.636 378.403L112.092 378.595L112.491 356.636Z" fill="#B25B52"/>
<path d="M123.87 378.003C130.44 381.851 132.453 381.998 139.985 383.493C141.627 383.819 140.68 387.814 136.744 387.932C130.248 388.051 129.552 387.755 124.018 387.932C119.268 388.021 113.823 388.347 110.049 388.48H109.709C109.531 388.443 109.361 388.371 109.211 388.268C109.061 388.165 108.932 388.034 108.833 387.881C108.734 387.728 108.666 387.557 108.634 387.378C108.601 387.199 108.605 387.015 108.644 386.837L110.316 378.314C110.355 378.13 110.455 377.964 110.6 377.843C110.745 377.722 110.926 377.654 111.115 377.648L121.547 377.441C122.358 377.412 123.162 377.607 123.87 378.003Z" fill="#383838"/>
<path opacity="0.2" d="M112.476 356.65L112.284 367.926L121.814 367.748L121.976 356.473L112.476 356.65Z" fill="black"/>
<path d="M42.8688 380.075C42.8527 380.117 42.8243 380.153 42.7873 380.178C42.7504 380.204 42.7065 380.217 42.6617 380.217C42.6168 380.217 42.573 380.204 42.536 380.178C42.499 380.153 42.4706 380.117 42.4545 380.075C42.3657 379.912 40.4717 376.612 40.9748 375.029C41.0464 374.729 41.2322 374.469 41.4927 374.304C41.6399 374.2 41.8156 374.144 41.9958 374.144C42.1759 374.144 42.3517 374.2 42.4989 374.304C43.0464 374.689 43.2092 375.784 43.2092 377.086C43.1877 378.09 43.0737 379.091 42.8688 380.075ZM41.2855 375.636C41.4331 376.939 41.8353 378.201 42.4693 379.35C42.7209 377.574 42.7061 375.177 42.0846 374.733C42.0846 374.644 41.8774 374.585 41.5963 374.733C41.5112 374.78 41.4377 374.846 41.3814 374.925C41.3251 375.005 41.2872 375.096 41.2707 375.192C41.2499 375.334 41.2499 375.478 41.2707 375.621L41.2855 375.636Z" fill="#13DA87"/>
<path d="M42.8538 380.164C42.8316 380.197 42.8002 380.223 42.7634 380.239C42.7266 380.254 42.6861 380.259 42.6467 380.252C41.2914 380.188 39.998 379.666 38.9769 378.773C38.8247 378.604 38.7113 378.404 38.6449 378.186C38.5784 377.969 38.5604 377.74 38.5922 377.515C38.5922 376.893 38.9621 376.671 39.2136 376.671C40.3087 376.479 42.3655 378.728 42.8834 379.868V379.956C42.8973 379.99 42.9019 380.028 42.8967 380.064C42.8915 380.1 42.8767 380.135 42.8538 380.164ZM38.9917 377.737C39.0084 378.027 39.1231 378.304 39.3172 378.521C40.1541 379.222 41.1883 379.646 42.2767 379.734C41.5665 378.565 39.9535 377.041 39.3172 377.16C39.3172 377.16 39.0657 377.16 39.0657 377.604V377.737H38.9917Z" fill="#13DA87"/>
<path d="M47.7963 357.849L57.0595 358.322L52.0579 380.548L42.7207 380.075L47.7963 357.849Z" fill="#B25B52"/>
<path d="M40.4716 378.891C37.9708 381.851 36.6539 383.463 29.3587 385.905C27.7457 386.438 29.1959 390.27 33.1173 389.841C39.5838 389.146 36.0768 389.235 41.5222 388.628C46.2427 388.125 51.6882 387.755 55.4467 387.414C55.5741 387.435 55.7041 387.435 55.8315 387.414C56.1806 387.296 56.4686 387.045 56.6323 386.715C56.7959 386.384 56.8219 386.003 56.7045 385.654L53.9966 377.426C53.9393 377.245 53.8208 377.09 53.6614 376.988C53.502 376.885 53.3118 376.841 53.1235 376.864L42.7652 377.974C41.9099 377.966 41.0859 378.296 40.4716 378.891Z" fill="#383838"/>
<path opacity="0.2" d="M47.7817 357.864L45.1921 369.273L54.485 369.761L57.0598 358.322L47.7817 357.864Z" fill="black"/>
<path d="M97.353 151.068C93.9562 156.725 91.1355 162.709 88.9332 168.929C84.1388 182.794 86.0921 189.956 84.5827 199.293C81.934 215.763 77.7167 228.43 74.8312 240.934C65.8343 280.073 43.2236 362.747 43.2236 362.747L60.0336 366.076C60.0336 366.076 92.7066 269.892 100.934 241.866C108.333 216.636 127.348 150.387 127.348 150.387L97.353 151.068Z" fill="#13DA87"/>
<path d="M97.353 151.068C93.9562 156.725 91.1355 162.709 88.9332 168.929C84.1388 182.794 86.0921 189.956 84.5827 199.293C81.934 215.763 77.7167 228.43 74.8312 240.934C65.8343 280.073 43.2236 362.747 43.2236 362.747L60.0336 366.076C60.0336 366.076 92.7066 269.892 100.934 241.866C108.333 216.636 127.348 150.387 127.348 150.387L97.353 151.068Z" fill="#13DA87"/>
<path d="M41.2705 359.684V365.603L61.4839 367.364C61.4839 367.364 63.1265 360.823 63.0525 360.823L41.2705 359.684Z" fill="#13DA87"/>
<path opacity="0.3" d="M118.558 180.856C112.639 201.661 104.989 227.986 100.934 241.792C100.742 242.458 100.535 243.153 100.328 243.893C101.556 220.927 105.255 182.424 116.738 180.767C117.344 180.663 117.965 180.693 118.558 180.856Z" fill="black"/>
<path d="M112.787 150.669C112.787 150.669 109.206 213.913 109.265 243.789C109.339 271.624 109.724 365.795 109.724 365.795L125.868 365.484C125.868 365.484 135.19 269.419 137.454 241.096C139.615 214.283 145.342 150.55 145.342 150.55L112.787 150.669Z" fill="#13DA87"/>
<path d="M112.787 150.669C112.787 150.669 109.206 213.913 109.265 243.789C109.339 271.624 109.724 365.795 109.724 365.795L125.868 365.484C125.868 365.484 135.19 269.419 137.454 241.096C139.615 214.283 145.342 150.55 145.342 150.55L112.787 150.669Z" fill="#13DA87"/>
<path d="M107.224 360.187L107.89 366.106L127.511 365.721C127.511 365.721 128.295 359.077 128.221 359.077L107.224 360.187Z" fill="#13DA87"/>
<path d="M171.814 56.1715L176.712 52.7828C177.837 58.1099 182.898 62.268 186.745 64.7392C188.58 65.923 189.261 68.6162 187.959 69.5188L184.777 71.7385C180.915 74.402 171.814 56.1715 171.814 56.1715Z" fill="#13DA87"/>
<path d="M169.876 57.518L181.093 49.7345C182.846 48.5176 184.046 46.6553 184.429 44.5556C184.811 42.4559 184.346 40.2902 183.135 38.5328C181.913 36.7817 180.048 35.5844 177.947 35.2019C175.846 34.8195 173.679 35.2827 171.919 36.4907L160.702 44.2742C158.951 45.4934 157.755 47.3568 157.375 49.4564C156.995 51.5559 157.462 53.7204 158.675 55.476C159.892 57.2293 161.754 58.4288 163.854 58.8116C165.953 59.1943 168.119 58.7292 169.876 57.518Z" fill="#13DA87"/>
<path opacity="0.3" d="M169.876 57.518L181.093 49.7345C182.846 48.5176 184.046 46.6553 184.429 44.5556C184.811 42.4559 184.346 40.2902 183.135 38.5328C181.913 36.7817 180.048 35.5844 177.947 35.2019C175.846 34.8195 173.679 35.2827 171.919 36.4907L160.702 44.2742C158.951 45.4934 157.755 47.3568 157.375 49.4564C156.995 51.5559 157.462 53.7204 158.675 55.476C159.892 57.2293 161.754 58.4288 163.854 58.8116C165.953 59.1943 168.119 58.7292 169.876 57.518Z" fill="black"/>
<path d="M204.384 45.3988L183.342 54.2774C181.684 55.4316 166.798 33.9603 168.544 32.8061L184.23 16.2181L204.384 45.3988Z" fill="#13DA87"/>
<path d="M192.738 31.8739C198.331 39.9238 203.54 45.9907 204.384 45.3988C205.227 44.8069 201.424 37.8077 195.801 29.743C190.178 21.6784 184.999 15.6262 184.155 16.2181C183.312 16.81 187.159 23.8092 192.738 31.8739Z" fill="#13DA87"/>
<path opacity="0.3" d="M192.738 31.8739C198.331 39.9238 203.54 45.9907 204.384 45.3988C205.227 44.8069 201.424 37.8077 195.801 29.743C190.178 21.6784 184.999 15.6262 184.155 16.2181C183.312 16.81 187.159 23.8092 192.738 31.8739Z" fill="black"/>
<path d="M197.814 29.2547C196.452 27.2867 193.582 26.5912 192.649 27.2423C191.717 27.8934 192.057 30.0242 193.419 31.9923C194.78 33.9604 196.659 34.9518 197.592 34.3747C198.213 33.6773 198.574 32.787 198.614 31.8542C198.655 30.9214 198.372 30.0032 197.814 29.2547Z" fill="#13DA87"/>
<path d="M170.246 65.9379L171.726 61.765C172.653 59.1923 174.36 56.9731 176.609 55.4168L179.746 53.2415C180.041 53.0403 180.404 52.9632 180.755 53.0269C181.107 53.0905 181.419 53.2899 181.625 53.5819C183.752 56.4457 185.172 59.772 185.768 63.2891C185.808 63.7262 185.734 64.1661 185.552 64.5656C185.37 64.9651 185.088 65.3105 184.733 65.5679L177.985 70.096C176.92 70.9246 175.662 71.339 174.7 70.3919L170.246 65.9379Z" fill="#B25B52"/>
<path d="M177.807 67.1513L172.969 87.4535C172.821 88.1194 172.643 88.7556 172.48 89.3919C168.396 104.545 160.524 112.594 156.913 110.73C153.303 108.865 145.356 99.987 145.356 99.987L154.339 92.8989L156.913 95.0594L170.971 64.6949L172.969 60.4628C172.969 60.4628 179.272 60.4184 177.807 67.1513Z" fill="#B25B52"/>
<path d="M172.969 87.4535L172.51 89.4067C172.628 88.7556 172.806 88.1194 172.969 87.4535Z" fill="#B25B52"/>
<path d="M146.333 75.6006C154.561 82.3335 159.651 96.6575 159.651 96.6575L146.333 105.107C146.333 105.107 128.872 92.7214 130.234 80.9573C131.21 71.9456 136.167 67.2548 146.333 75.6006Z" fill="#383838"/>
<path d="M138.638 102.236L143.344 107.238L161.663 95.4589L158.822 89.6583L138.638 102.236Z" fill="#13DA87"/>
<path d="M207.432 22.877L216.977 0L224.568 4.18771L207.432 22.877Z" fill="#383838"/>
<path d="M208.409 31.1044L233.165 29.6987L231.715 21.1457L208.409 31.1044Z" fill="#383838"/>
<path d="M214.594 23.099L233.52 1.09506L241.008 9.32249L214.594 23.099Z" fill="#383838"/>
<path d="M26.1621 17.3131V37.349L44.955 47.2929V25.5553L26.1621 17.3131Z" fill="#13DA87"/>
<path opacity="0.1" d="M26.1621 17.3131V37.349L44.955 47.2929V25.5553L26.1621 17.3131Z" fill="black"/>
<path d="M63.7331 17.3131V37.349L44.9551 47.2929V25.5553L63.7331 17.3131Z" fill="#13DA87"/>
<path opacity="0.2" d="M63.7331 17.3131V37.349L44.9551 47.2929V25.5553L63.7331 17.3131Z" fill="black"/>
<path d="M26.1621 17.3131L44.955 25.5553L63.7331 17.3131L44.955 7.87228L26.1621 17.3131Z" fill="#13DA87"/>
<path d="M53.3604 21.856V34.3007L54.337 32.673L54.9289 33.546L55.5504 32.1403L56.1719 33.0133V20.6278L53.3604 21.856Z" fill="#383838"/>
<path d="M53.3599 21.8559L34.2119 13.2734L37.3046 11.7048L56.1715 20.6277L53.3599 21.8559Z" fill="#383838"/>
<path d="M329.275 381.85H294.767C294.767 379.498 299.206 377.411 305.391 376.597V361.8H318.635V376.597C324.88 377.441 329.275 379.483 329.275 381.85Z" fill="#13DA87"/>
<path opacity="0.4" d="M329.275 381.85H294.767C294.767 379.498 299.206 377.411 305.391 376.597V361.8H318.635V376.597C324.88 377.441 329.275 379.483 329.275 381.85Z" fill="black"/>
<path d="M368.31 305.747H256.175V366.047H368.31V305.747Z" fill="#13DA87"/>
<path opacity="0.2" d="M368.31 305.747H256.175V366.047H368.31V305.747Z" fill="black"/>
<path opacity="0.2" d="M365.262 308.499H258.779V359.181H365.262V308.499Z" fill="black"/>
<path opacity="0.2" d="M318.635 366.047H305.392V369.243H318.635V366.047Z" fill="black"/>
<path d="M305.392 324.939V346.854L324.85 335.889L305.392 324.939Z" fill="white"/>
<path d="M249.294 297.268C249.219 298.011 248.879 298.701 248.335 299.213C247.791 299.724 247.08 300.021 246.334 300.05H226.654C226.297 300.059 225.943 299.991 225.615 299.851C225.286 299.71 224.992 299.501 224.752 299.237C224.512 298.973 224.332 298.661 224.223 298.321C224.115 297.981 224.081 297.622 224.123 297.268L224.375 294.308H249.619L249.294 297.268Z" fill="#13DA87"/>
<path d="M210.11 300.804L202.563 386.882C202.448 387.937 202.558 389.004 202.887 390.013C203.216 391.022 203.756 391.95 204.472 392.734C205.187 393.518 206.061 394.14 207.036 394.56C208.011 394.98 209.064 395.187 210.125 395.168H245.95C248.205 395.126 250.366 394.26 252.026 392.733C253.687 391.207 254.731 389.125 254.962 386.882L262.493 300.804C262.609 299.749 262.499 298.682 262.17 297.673C261.841 296.664 261.301 295.736 260.585 294.952C259.87 294.168 258.996 293.546 258.021 293.126C257.046 292.706 255.993 292.499 254.932 292.518H219.107C216.855 292.564 214.697 293.431 213.04 294.958C211.383 296.484 210.341 298.563 210.11 300.804Z" fill="#13DA87"/>
<g opacity="0.4">
<path opacity="0.4" d="M249.294 297.268C249.219 298.011 248.879 298.701 248.335 299.213C247.791 299.724 247.08 300.021 246.334 300.05H226.653C226.297 300.059 225.942 299.991 225.614 299.851C225.286 299.71 224.992 299.501 224.752 299.237C224.512 298.973 224.332 298.661 224.223 298.321C224.115 297.981 224.08 297.622 224.123 297.268L224.375 294.308H249.619L249.294 297.268Z" fill="black"/>
<path opacity="0.4" d="M210.11 300.804L202.563 386.882C202.448 387.937 202.558 389.004 202.887 390.013C203.216 391.022 203.756 391.95 204.472 392.734C205.187 393.518 206.061 394.14 207.036 394.56C208.011 394.98 209.064 395.187 210.125 395.168H245.95C248.205 395.126 250.366 394.26 252.026 392.733C253.687 391.207 254.731 389.125 254.962 386.882L262.493 300.804C262.609 299.749 262.499 298.682 262.17 297.673C261.841 296.664 261.301 295.736 260.585 294.952C259.87 294.168 258.996 293.546 258.021 293.126C257.046 292.706 255.993 292.499 254.932 292.518H219.107C216.855 292.564 214.697 293.431 213.04 294.958C211.383 296.484 210.341 298.563 210.11 300.804Z" fill="#13DA87"/>
</g>
<path d="M216.754 294.293H252.579C253.413 294.289 254.238 294.46 255.001 294.796C255.764 295.133 256.448 295.627 257.007 296.246C257.565 296.865 257.987 297.595 258.244 298.388C258.501 299.181 258.588 300.02 258.498 300.849L250.981 386.926C250.779 388.694 249.947 390.329 248.637 391.533C247.327 392.737 245.627 393.429 243.849 393.481H208.068C207.234 393.486 206.409 393.315 205.646 392.978C204.883 392.642 204.199 392.148 203.641 391.529C203.082 390.91 202.66 390.18 202.403 389.387C202.146 388.594 202.059 387.755 202.149 386.926L209.681 300.849C209.86 299.083 210.678 297.442 211.98 296.236C213.282 295.029 214.979 294.338 216.754 294.293Z" fill="#13DA87"/>
<path opacity="0.3" d="M216.754 294.293H252.579C253.413 294.289 254.238 294.46 255.001 294.796C255.764 295.133 256.448 295.627 257.007 296.246C257.565 296.865 257.987 297.595 258.244 298.388C258.501 299.181 258.588 300.02 258.498 300.849L250.981 386.926C250.779 388.694 249.947 390.329 248.637 391.533C247.327 392.737 245.627 393.429 243.849 393.481H208.068C207.234 393.486 206.409 393.315 205.646 392.978C204.883 392.642 204.199 392.148 203.641 391.529C203.082 390.91 202.66 390.18 202.403 389.387C202.146 388.594 202.059 387.755 202.149 386.926L209.681 300.849C209.86 299.083 210.678 297.442 211.98 296.236C213.282 295.029 214.979 294.338 216.754 294.293Z" fill="white"/>
<path d="M207.89 300.849L200.359 386.926C200.245 387.981 200.357 389.047 200.687 390.055C201.017 391.063 201.557 391.99 202.272 392.773C202.987 393.557 203.86 394.179 204.834 394.6C205.808 395.02 206.86 395.229 207.92 395.213H243.745C245.999 395.167 248.159 394.3 249.818 392.774C251.478 391.248 252.523 389.168 252.757 386.926L260.274 300.849C260.39 299.794 260.279 298.726 259.95 297.717C259.621 296.708 259.081 295.781 258.366 294.997C257.65 294.213 256.776 293.59 255.801 293.17C254.826 292.751 253.773 292.543 252.712 292.562H216.902C214.647 292.605 212.486 293.471 210.826 294.997C209.165 296.524 208.121 298.605 207.89 300.849ZM209.622 300.849C209.803 299.073 210.628 297.425 211.943 296.216C213.257 295.008 214.969 294.324 216.754 294.294H252.579C253.413 294.289 254.238 294.46 255.001 294.796C255.764 295.133 256.448 295.627 257.007 296.246C257.565 296.865 257.987 297.595 258.244 298.388C258.501 299.181 258.588 300.02 258.498 300.849L250.981 386.926C250.779 388.694 249.947 390.329 248.637 391.533C247.327 392.737 245.627 393.429 243.848 393.481H208.068C207.234 393.486 206.409 393.315 205.646 392.978C204.883 392.642 204.199 392.148 203.641 391.529C203.082 390.91 202.66 390.18 202.403 389.387C202.146 388.594 202.059 387.755 202.149 386.926L209.622 300.849Z" fill="white"/>
<path d="M247.341 294.338C247.201 295.546 246.627 296.662 245.726 297.478C244.825 298.295 243.659 298.756 242.443 298.777H226.239C225.669 298.786 225.103 298.674 224.578 298.45C224.053 298.225 223.581 297.893 223.193 297.474C222.805 297.056 222.51 296.56 222.326 296.02C222.142 295.479 222.074 294.906 222.126 294.338H247.37H247.341Z" fill="white"/>
<path d="M229.717 347.431L222.777 346.07C224.094 352.403 220.557 359.388 217.553 363.827C216.073 365.988 216.665 369.258 218.5 369.628L223.028 370.516C228.503 371.625 229.717 347.431 229.717 347.431Z" fill="#13DA87"/>
<path d="M232.469 347.979L216.547 344.857C214.058 344.36 211.868 342.898 210.454 340.791C209.04 338.683 208.517 336.102 209 333.611C209.494 331.123 210.953 328.933 213.058 327.518C215.163 326.104 217.742 325.581 220.232 326.064L236.154 329.186C238.642 329.68 240.834 331.138 242.25 333.243C243.667 335.347 244.194 337.926 243.715 340.417C243.218 342.907 241.757 345.099 239.65 346.515C237.543 347.932 234.962 348.458 232.469 347.979Z" fill="#13DA87"/>
<path opacity="0.3" d="M232.469 347.979L216.547 344.857C214.058 344.36 211.868 342.898 210.454 340.791C209.04 338.683 208.517 336.102 209 333.611C209.494 331.123 210.953 328.933 213.058 327.518C215.163 326.104 217.742 325.581 220.232 326.064L236.154 329.186C238.642 329.68 240.834 331.138 242.25 333.243C243.667 335.347 244.194 337.926 243.715 340.417C243.218 342.907 241.757 345.099 239.65 346.515C237.543 347.932 234.962 348.458 232.469 347.979Z" fill="black"/>
<path d="M189.127 351.22L216.266 350.865C218.619 351.323 224.597 320.855 222.185 320.396L197.192 309.816L189.127 351.22Z" fill="#13DA87"/>
<path d="M195.357 330.947C193.123 342.371 190.326 351.456 189.127 351.22C187.929 350.983 188.772 341.527 191.021 330.089C193.271 318.65 196.052 309.579 197.251 309.816C198.45 310.053 197.606 319.509 195.357 330.947Z" fill="#13DA87"/>
<path opacity="0.3" d="M195.357 330.947C193.123 342.371 190.326 351.456 189.127 351.22C187.929 350.983 188.772 341.527 191.021 330.089C193.271 318.65 196.052 309.579 197.251 309.816C198.45 310.053 197.606 319.509 195.357 330.947Z" fill="black"/>
<path d="M188.58 330.518C189.127 327.721 191.924 325.605 193.256 325.857C194.588 326.108 195.224 328.594 194.736 331.391C194.247 334.188 192.664 336.245 191.332 335.993C190 335.741 188.032 333.27 188.58 330.518Z" fill="#13DA87"/>
<path d="M236.805 354.889L233.165 351.027C230.924 348.673 228.008 347.07 224.819 346.44L220.38 345.567C219.962 345.488 219.53 345.575 219.177 345.81C218.823 346.045 218.575 346.409 218.486 346.825C217.953 349.474 217.169 354.949 218.604 359.373C218.762 359.871 219.05 360.318 219.437 360.669C219.824 361.02 220.298 361.262 220.809 361.371L230.324 363.087C231.877 363.472 233.446 363.324 234.038 361.829L236.805 354.889Z" fill="#FFC0BA"/>
<path d="M234.718 364.463L251.099 386.171L252.727 367.512L236.805 354.889C236.805 354.889 229.894 357.849 234.718 364.463Z" fill="#FFC0BA"/>
<path d="M181.27 325.96L162.418 309.846L157.55 317.022L181.27 325.96Z" fill="white"/>
<path d="M184.111 333.744L161.397 343.658L158.822 335.386L184.111 333.744Z" fill="white"/>
<path d="M174.981 329.393L148.168 318.295L145.193 329.023L174.981 329.393Z" fill="white"/>
<path d="M231.507 125.483L226.683 150.846H232.721L241.17 130.544C241.17 130.544 240.563 124.27 231.507 125.483Z" fill="#13DA87"/>
<path d="M284.335 125.483L289.159 150.846H283.121L274.672 130.544C274.672 130.544 275.279 124.27 284.335 125.483Z" fill="#13DA87"/>
<path opacity="0.3" d="M231.507 125.483L226.683 150.846H232.721L241.17 130.544C241.17 130.544 240.563 124.27 231.507 125.483Z" fill="black"/>
<path opacity="0.3" d="M284.335 125.483L289.159 150.846H283.121L274.672 130.544C274.672 130.544 275.279 124.27 284.335 125.483Z" fill="black"/>
<path d="M257.862 139.201C282.878 139.201 303.157 118.921 303.157 93.9052C303.157 68.8894 282.878 48.61 257.862 48.61C232.846 48.61 212.566 68.8894 212.566 93.9052C212.566 118.921 232.846 139.201 257.862 139.201Z" fill="#13DA87"/>
<path d="M258.439 128.901C277.767 128.901 293.435 113.233 293.435 93.9052C293.435 74.5774 277.767 58.9091 258.439 58.9091C239.111 58.9091 223.443 74.5774 223.443 93.9052C223.443 113.233 239.111 128.901 258.439 128.901Z" fill="white"/>
<path d="M257.861 122.02C273.389 122.02 285.977 109.433 285.977 93.9052C285.977 78.3775 273.389 65.7899 257.861 65.7899C242.334 65.7899 229.746 78.3775 229.746 93.9052C229.746 109.433 242.334 122.02 257.861 122.02Z" fill="#13DA87"/>
<path d="M257.862 115.628C269.859 115.628 279.584 105.902 279.584 93.9052C279.584 81.908 269.859 72.1824 257.862 72.1824C245.865 72.1824 236.139 81.908 236.139 93.9052C236.139 105.902 245.865 115.628 257.862 115.628Z" fill="white"/>
<path d="M257.862 100.179C261.327 100.179 264.136 97.3704 264.136 93.9052C264.136 90.4401 261.327 87.631 257.862 87.631C254.397 87.631 251.588 90.4401 251.588 93.9052C251.588 97.3704 254.397 100.179 257.862 100.179Z" fill="#13DA87"/>
<path d="M308.129 22.3295V33.8124L295.773 48.61H295.758L293.435 39.6426L308.129 22.3295Z" fill="#13DA87"/>
<path d="M307.5 33.2947L257.219 93.3667L258.512 94.4494L308.794 34.3774L307.5 33.2947Z" fill="#383838"/>
<path d="M318.369 34.0195L306.116 48.6099H295.773L308.129 33.8124L318.369 34.0195Z" fill="#13DA87"/>
<path opacity="0.2" d="M318.369 34.0195L306.116 48.6099H295.773L308.129 33.8124L318.369 34.0195Z" fill="black"/>
<path d="M319.464 99.4691L315.528 92.0704C315.528 92.0704 318.487 86.6397 322.172 86.4325C325.856 86.2253 329.571 89.392 329.571 89.392L334.202 87.4683L330.725 100.549C330.725 100.549 324.421 105.758 319.464 99.4691Z" fill="#13DA87"/>
<path d="M349.991 127.14C349.991 143.743 339.544 150.491 326.655 150.491C320.462 150.491 314.523 148.031 310.144 143.652C305.765 139.273 303.305 133.333 303.305 127.14C303.305 114.252 313.752 97.797 326.655 97.797C326.655 97.797 349.991 111.943 349.991 127.14Z" fill="#13DA87"/>
<path opacity="0.2" d="M349.991 127.14C349.991 143.743 339.544 150.491 326.655 150.491C320.462 150.491 314.523 148.031 310.144 143.652C305.765 139.273 303.305 133.333 303.305 127.14C303.305 114.252 313.752 97.797 326.655 97.797C326.655 97.797 349.991 111.943 349.991 127.14Z" fill="black"/>
<path d="M334.513 129.848C334.513 133.193 331.82 135.442 327.603 135.767L327.04 138.535H324.525L325.072 135.767C323.003 135.625 321.005 134.953 319.271 133.814L320.973 130.692C322.373 131.703 324.018 132.321 325.738 132.482L326.596 128.221C324.243 127.51 321.669 126.578 321.669 123.53C321.669 120.171 324.421 117.907 328.712 117.611L329.26 114.844H331.79L331.228 117.64C332.868 117.781 334.455 118.286 335.874 119.12L334.395 122.257C333.268 121.518 331.978 121.065 330.636 120.94L329.748 125.38C332.012 126.105 334.513 126.933 334.513 129.848ZM327.292 124.625L328.032 121C326.552 121.281 325.782 122.05 325.753 123.012C325.723 123.974 326.389 124.27 327.292 124.625ZM330.429 130.544C330.429 129.804 329.852 129.36 328.949 129.064L328.268 132.512C329.645 132.157 330.429 131.461 330.429 130.544Z" fill="white"/>
</svg>
